<?xml version="1.0" encoding="utf-8"?>
<!-- Svg Vector Icons : http://www.onlinewebfonts.com/icon -->
<!DOCTYPE svg PUBLIC "-//W3C//DTD SVG 1.1//EN" "http://www.w3.org/Graphics/SVG/1.1/DTD/svg11.dtd">
<svg version="1.1" xmlns="http://www.w3.org/2000/svg" xmlns:xlink="http://www.w3.org/1999/xlink" x="0px" y="0px" viewBox="0 0 1000 1000" enable-background="new 0 0 1000 1000" xml:space="preserve">
<metadata> Svg Vector Icons : http://www.onlinewebfonts.com/icon </metadata>
<g><g transform="matrix(1 0 0 -1 0 1920)"><path d="M273.3,995v37.8c0,10.3,3.7,19.2,11.1,26.6c7.4,7.4,16.3,11.1,26.6,11.1h37.8v37.8c0,10.3,3.7,19.2,11.1,26.6s16.3,11.1,26.6,11.1h75.6v501.7c-12.6,7.3-22.3,17.4-29.1,30.2l-247.5-54.8c0-0.3,0.3-0.6,0.8-0.9c0.5-0.4,0.8-0.7,0.8-0.9L339.1,1335H296l-117.1,221.4L61.8,1335H19.1l150.4,284.5c-4.5-0.8-7.7-1.1-9.4-1.1c-6.5,0-12.7,1.6-18.5,4.7c-5.8,3.1-10.5,7.7-14,13.6s-5.3,12.4-5.3,19.5c0,8.8,2.8,16.7,8.3,23.6c5.5,6.9,12.6,11.4,21.2,13.4l287.1,63.5c7.1,9.8,15.9,17.6,26.6,23.2s22.2,8.5,34.6,8.5c12.6,0,24.8-3.3,36.6-9.8l295.1,65.7c2.8,0.5,5.4,0.8,7.9,0.8c10.3,0,19.3-3.6,26.8-10.8c7.6-7.2,11.3-16.2,11.3-27c0-8.8-2.8-16.7-8.3-23.6c-5.5-6.9-12.6-11.4-21.2-13.4l-15.9-3.4l148.9-280.7h-43.1l-117.1,221.4L704,1486.1h-43.1l145.8,275l-231.6-51.4c-0.5-13.1-4.1-25.1-10.8-36.1s-15.6-19.6-26.6-25.9v-501.7h75.6c10.3,0,19.2-3.7,26.6-11.1s11.1-16.3,11.1-26.6v-37.8h37.8c10.3,0,19.2-3.7,26.6-11.1s11.1-16.3,11.1-26.6V995H273.3z M821.1,1297.2c-6,0-12.7,0.5-19.8,1.5c-7.2,1-15.2,2.6-24,4.7c-8.8,2.1-17.6,5.2-26.4,9.1c-8.8,3.9-17.8,8.6-26.8,14c-9.1,5.4-17.6,12.1-25.5,20c-7.9,7.9-15.1,16.7-21.5,26.3c-6.4,9.6-11.8,20.8-16.2,33.8c-4.4,13-7.2,26.9-8.5,41.7H990c-1.5-16.9-5-32.6-10.4-47c-5.4-14.5-12-26.8-19.8-36.8c-7.8-10.1-16.7-19.1-26.6-27.2c-9.9-8.1-20-14.5-30-19.5s-20.3-8.9-30.8-12.1s-19.8-5.4-28.1-6.6C835.9,1297.8,828.2,1297.2,821.1,1297.2z M178.9,1146.1c-7.1,0-14.7,0.6-23,1.9c-8.3,1.3-17.7,3.5-28.1,6.6c-10.5,3.2-20.7,7.2-30.8,12.1c-10.1,4.9-20.1,11.4-30,19.5c-9.9,8.1-18.8,17.1-26.6,27.2c-7.8,10.1-14.4,22.4-19.8,36.8c-5.4,14.5-8.9,30.2-10.4,47h337.7c-1.5-16.9-5-32.6-10.4-47c-5.4-14.5-12-26.8-19.8-36.8s-16.7-19.1-26.6-27.2c-9.9-8.1-20-14.5-30-19.5c-10.1-4.9-20.3-8.9-30.8-12.1c-10.5-3.1-19.8-5.4-28.1-6.6C193.6,1146.7,185.9,1146.1,178.9,1146.1z"/></g></g>
</svg>