<?xml version="1.0" encoding="utf-8"?>
<!-- Svg Vector Icons : http://www.onlinewebfonts.com/icon -->
<!DOCTYPE svg PUBLIC "-//W3C//DTD SVG 1.1//EN" "http://www.w3.org/Graphics/SVG/1.1/DTD/svg11.dtd">
<svg version="1.1" xmlns="http://www.w3.org/2000/svg" xmlns:xlink="http://www.w3.org/1999/xlink" x="0px" y="0px" viewBox="0 0 1000 1000" enable-background="new 0 0 1000 1000" xml:space="preserve">
<metadata> Svg Vector Icons : http://www.onlinewebfonts.com/icon </metadata>
<g><g transform="translate(0.000000,511.000000) scale(0.100000,-0.100000)"><path d="M4574.6,4394.3c-703.4-61.3-1316.7-195.5-1839.9-402.5c-1420.1-565.4-2361.1-1562-2598.8-2757.9C88,994.4,88,457.8,135.9,218.2c92-467.6,302.8-929.5,599.9-1318.5c134.2-174.4,490.6-534.7,676.5-684.2c210.8-166.7,490.6-352.6,678.4-450.4l149.5-76.7l-11.5-162.9c-28.8-392.9-199.3-864.3-490.6-1355c-63.2-107.3-115-212.7-115-233.8c0-69,88.2-116.9,220.4-116.9c621,0,1391.4,415.9,2021.9,1088.6l191.7,207l187.8-26.8c247.2-36.4,1190.2-40.3,1450.8-7.7c1167.2,147.6,2135,530.9,2895.8,1146.1c226.2,182.1,563.5,530.9,709.1,735.9c881.6,1222.7,783.9,2704.2-249.1,3829.2c-780,849-1908.8,1389.5-3271.5,1565.8C5555.8,4388.5,4768.2,4411.5,4574.6,4394.3z"/></g></g>
</svg>