<?xml version="1.0" encoding="utf-8"?>
<!-- Svg Vector Icons : http://www.onlinewebfonts.com/icon -->
<!DOCTYPE svg PUBLIC "-//W3C//DTD SVG 1.1//EN" "http://www.w3.org/Graphics/SVG/1.1/DTD/svg11.dtd">
<svg version="1.1" xmlns="http://www.w3.org/2000/svg" xmlns:xlink="http://www.w3.org/1999/xlink" x="0px" y="0px" viewBox="0 0 1000 1000" enable-background="new 0 0 1000 1000" xml:space="preserve">
<metadata> Svg Vector Icons : http://www.onlinewebfonts.com/icon </metadata>
<g><path d="M351.2,132.3h295.7c25.9,0,40.4-22.5,40.4-50.4V60.4c0-27.8-14.4-50.4-40.4-50.4H351.2c-25.9,0-46.9,22.6-46.9,50.4v21.6C304.3,109.8,325.3,132.3,351.2,132.3L351.2,132.3z M770,152.4H247c-142.5,0-163.5,10.7-163.5,146.1l832.9-0.4C916.4,162.7,912.6,152.4,770,152.4L770,152.4z M158.7,802.7c0,196.9,71.7,187.2,211,187.2h345.1c89-8.4,124.8-10.2,124.8-207.1V370.3H158.7L158.7,802.7L158.7,802.7z M612.4,460.6c0-26.5,16.9-48,37.8-48c20.9,0,37.8,21.5,37.8,48v406.6c0,26.5-16.9,48-37.8,48c-20.9,0-37.8-21.5-37.8-48V460.6z M461.3,460.6c0-26.5,16.9-48,37.8-48c20.9,0,37.8,21.5,37.8,48v406.6c0,26.5-16.9,48-37.8,48c-20.9,0-37.8-21.5-37.8-48V460.6L461.3,460.6z M310.2,460.6c0-26.5,16.9-48,37.8-48c20.9,0,37.8,21.5,37.8,48v406.6c0,26.5-16.9,48-37.8,48c-20.9,0-37.8-21.5-37.8-48V460.6z"/></g>
</svg>