<?xml version="1.0" encoding="utf-8"?>
<!-- Svg Vector Icons : http://www.onlinewebfonts.com/icon -->
<!DOCTYPE svg PUBLIC "-//W3C//DTD SVG 1.1//EN" "http://www.w3.org/Graphics/SVG/1.1/DTD/svg11.dtd">
<svg version="1.1" xmlns="http://www.w3.org/2000/svg" xmlns:xlink="http://www.w3.org/1999/xlink" x="0px" y="0px" viewBox="0 0 1000 1000" enable-background="new 0 0 1000 1000" xml:space="preserve">
<metadata> Svg Vector Icons : http://www.onlinewebfonts.com/icon </metadata>
<g><path d="M747.1,384.8c1.6-1.5,2.2-3.8,1.4-6c-0.8-2.2-2.9-3.5-5.1-3.5H591.6l0.3-248.3c0-4.2-1.6-8.4-4.8-11.6c-3.2-3.2-7.4-4.8-11.6-4.8l-148.7,0c-4.2,0-8.4,1.6-11.6,4.8c-3.2,3.2-4.8,7.4-4.8,11.6l0.3,248.3H259.1c-2.2,0-4.2,1.3-5.1,3.5c-0.8,2.1-0.2,4.5,1.4,6l234.7,217.7c2.9,2.7,6.8,4.4,11.1,4.4c4.3,0,8.2-1.7,11.1-4.4L747.1,384.8L747.1,384.8z"/><path d="M979.6,661.4L832.5,547.7c-8.3-6.5-23.8-11.8-34.4-11.8h-85.2l141.8,141.3H713.3l-72,102.3H358l-68.9-102.3H147.7l140.9-141.3h-86.8c-10.6,0-26,5.3-34.4,11.8L20.3,661.4c-8.3,6.5-12.5,20.1-9.2,30.1l58.7,179.6c3.3,10.1,14.6,18.3,25.2,18.3h811c10.6,0,21.9-8.2,25.1-18.3l57.7-179.6C992.1,681.4,988,667.9,979.6,661.4z"/></g>
</svg>