<?xml version="1.0" encoding="utf-8"?>
<!-- Svg Vector Icons : http://www.onlinewebfonts.com/icon -->
<!DOCTYPE svg PUBLIC "-//W3C//DTD SVG 1.1//EN" "http://www.w3.org/Graphics/SVG/1.1/DTD/svg11.dtd">
<svg version="1.1" xmlns="http://www.w3.org/2000/svg" xmlns:xlink="http://www.w3.org/1999/xlink" x="0px" y="0px" viewBox="0 0 1000 1000" enable-background="new 0 0 1000 1000" xml:space="preserve">
<metadata> Svg Vector Icons : http://www.onlinewebfonts.com/icon </metadata>
<g><path d="M511.6,90.3c-3-2.8-7.1-4.6-11.5-4.6s-8.5,1.7-11.5,4.6l-241,226.8c-1.6,1.5-2.2,4-1.4,6.2c0.9,2.2,3,3.5,5.2,3.5h155.9v230.5c0,4.3,1.6,8.6,4.9,11.9c3.3,3.3,7.6,4.9,11.9,4.9h151.9c4.3,0,8.6-1.6,11.9-4.9c3.3-3.3,4.9-7.6,4.9-11.9V326.8h155.9c2.2,0,4.3-1.3,5.2-3.5c0.9-2.2,0.3-4.6-1.4-6.2L511.6,90.3z M957.7,646.3l-148.4-103h-92.8l155.6,125.9L701,666.9c-5,0-12.1,4.8-14.3,8.8l-47.5,114.9H360.9l-47.5-114.9c-2.2-4-9.4-8.8-14.3-8.8H128.9l154.6-123.7h-92.8l-148.4,103c-23.2,13.9-37.1,45.9-30.9,71.2L39,868.4c6.2,25.3,33.8,45.9,61.3,45.9h799.4c27.5,0,55.1-20.7,61.3-45.9l27.5-150.9C994.8,692.2,980.9,660.2,957.7,646.3z"/></g>
</svg>