<?xml version="1.0" encoding="utf-8"?>
<!-- Svg Vector Icons : http://www.onlinewebfonts.com/icon -->
<!DOCTYPE svg PUBLIC "-//W3C//DTD SVG 1.1//EN" "http://www.w3.org/Graphics/SVG/1.1/DTD/svg11.dtd">
<svg version="1.1" xmlns="http://www.w3.org/2000/svg" xmlns:xlink="http://www.w3.org/1999/xlink" x="0px" y="0px" viewBox="0 0 1000 1000" enable-background="new 0 0 1000 1000" xml:space="preserve">
<metadata> Svg Vector Icons : http://www.onlinewebfonts.com/icon </metadata>
<g><g transform="translate(0.000000,512.000000) scale(0.100000,-0.100000)"><path d="M4622.6,5016.9c-693.8-70.9-1213.2-214.7-1782.4-494.5c-500.2-245.3-856.7-498.3-1263-891.2c-417.8-408.2-722.6-828-981.3-1353.1c-241.5-494.5-389.1-979.4-471.5-1552.4c-32.6-226.2-32.6-981.3,0-1207.5c136.1-952.5,504.1-1803.5,1082.9-2506.9c1353.1-1642.5,3595.5-2229,5571.5-1458.5C8043.7-3952.7,9071-2923.5,9569.3-1650.9C9772.5-1127.7,9876-625.6,9897-41c46,1326.3-446.6,2604.6-1374.2,3562.9C7752.4,4317.3,6796,4809.9,5686.3,4980.4C5492.8,5009.2,4791.3,5034.1,4622.6,5016.9z M5580.9,3753.8c1481.5-260.7,2618-1307.1,2982.2-2746.4c70.9-276,116.9-661.2,109.2-904.6l-5.8-182.1l-86.2,5.7c-210.8,17.3-375.6,191.7-450.4,475.3c-15.3,59.4-32.6,226.2-40.2,369.9c-5.8,143.7-19.2,287.5-28.8,320.1c-24.9,80.5-132.3,180.2-216.6,199.3c-88.2,19.2-327.7-7.7-500.2-57.5c-182.1-51.7-214.7-49.8-346.9,30.7c-164.8,97.8-193.6,130.3-207,233.8c-15.3,113.1-69,203.2-149.5,253c-159.1,95.8-596,9.6-783.9-157.2c-182.1-161-427.4-530.9-502.1-757.1c-70.9-214.6-92-373.7-95.8-714.9l-3.8-297.1l63.2-128.4c72.9-149.5,157.2-230,329.7-310.5l124.6-59.4l343.1,3.8l341.2,5.7l63.2-63.2c118.8-118.8,193.6-506,220.4-1155.7c21.1-494.5,49.8-686.1,143.7-935.3c59.4-159.1,61.3-174.4,32.6-197.4c-78.6-57.5-548.2-277.9-724.5-339.2c-1264.9-431.2-2623.8-159.1-3641.5,730.2c-565.4,496.4-1000.5,1243.9-1155.7,1989.4c-46,230-84.3,590.3-74.8,743.6l5.7,111.2l283.7-272.2C1765-202,1927.9-374.5,1972-437.7c84.3-126.5,155.2-168.7,283.7-168.7c132.3,0,239.6,76.7,297.1,214.7c46,115,99.7,138,274.1,122.7c80.5-7.7,193.6-23,247.2-34.5c164.8-34.5,216.6-7.7,419.7,210.8c161,174.4,176.3,201.3,208.9,322c57.5,218.5,115,327.7,243.4,461.9c139.9,143.7,195.5,178.2,297.1,178.2c172.5,0,314.3,95.8,352.7,235.7c26.8,99.7,7.7,168.7-82.4,329.7c-159.1,277.9-193.6,320.1-312.4,396.7c-65.2,44.1-93.9,70.9-67.1,65.2c174.4-44.1,368-70.9,444.6-63.3c178.2,21.1,300.9,116.9,345,270.2c11.5,42.2,42.2,99.7,65.2,126.5c141.8,157.2,97.7,431.2-103.5,642.1c-373.7,392.9-553.9,492.6-923.8,519.4c-90.1,7.7-180.1,21.1-201.2,32.6c-130.3,67.1-268.3,46-379.5-59.4c-101.6-99.7-151.4-210.8-151.4-346.9c0-107.3,49.8-249.2,99.7-279.8c13.4-7.7,15.3-44.1,9.6-93.9c-24.9-166.7,76.7-364.2,249.2-486.8l99.7-70.9l-97.7-38.3c-107.3-42.2-176.3-126.5-193.6-231.9c-5.7-36.4-15.3-97.7-21.1-136.1c-13.4-84.3-134.2-216.6-197.4-216.6c-161,0-404.4,262.6-404.4,435.1c0,59.4,57.5,178.2,126.5,260.6c122.6,145.7,103.5,293.2-59.4,460c-80.5,84.3-111.2,134.2-136.1,218.5c-21.1,72.8-24.9,118.8-13.4,138c42.2,67.1,396.7,297.1,667,431.2c400.6,199.3,828,327.7,1245.8,375.6C4818.1,3805.6,5375.8,3790.2,5580.9,3753.8z"/></g></g>
</svg>