<?xml version="1.0" encoding="utf-8"?>
<!-- Svg Vector Icons : http://www.onlinewebfonts.com/icon -->
<!DOCTYPE svg PUBLIC "-//W3C//DTD SVG 1.1//EN" "http://www.w3.org/Graphics/SVG/1.1/DTD/svg11.dtd">
<svg version="1.1" xmlns="http://www.w3.org/2000/svg" xmlns:xlink="http://www.w3.org/1999/xlink" x="0px" y="0px" viewBox="0 0 1000 1000" enable-background="new 0 0 1000 1000" xml:space="preserve">
<metadata> Svg Vector Icons : http://www.onlinewebfonts.com/icon </metadata>
<g><g transform="translate(0.000000,511.000000) scale(0.100000,-0.100000)"><path d="M280.1,4373.1c-78.6-34.5-159-132.2-172.5-208.9c-7.7-34.5-9.6-226.1-5.7-429.3c5.7-402.4,9.6-417.7,138-511.6c49.8-38.3,78.6-40.2,471.4-40.2c392.8,0,421.6,1.9,471.4,40.2c130.3,97.7,132.2,101.6,132.2,563.4c0,392.8-1.9,421.6-40.2,471.4c-95.8,128.4-105.4,132.2-540.4,136.1C433.4,4398,324.2,4394.2,280.1,4373.1z"/><path d="M2119.8,4373.1c-78.6-34.5-159-132.2-172.5-208.9c-7.7-34.5-9.6-226.1-5.7-429.3c5.7-402.4,9.6-417.7,138-511.6l51.7-40.2h3792.4H9716l51.7,40.2c130.3,97.7,132.2,101.6,132.2,563.4s-1.9,465.7-132.2,563.4l-51.7,40.2l-3769.4,3.8C2842.2,4398,2167.7,4394.2,2119.8,4373.1z"/><path d="M280.1,1920.3c-78.6-34.5-159-132.2-172.5-208.9c-7.7-34.5-9.6-226.1-5.7-429.3c5.7-402.4,9.6-417.8,138-511.7c49.8-38.3,78.6-40.2,471.4-40.2c392.8,0,421.6,1.9,471.4,40.2c130.3,97.7,132.2,101.6,132.2,563.4c0,392.8-1.9,421.6-40.2,471.4c-95.8,128.4-105.4,132.2-540.4,136.1C433.4,1945.2,324.2,1941.3,280.1,1920.3z"/><path d="M2119.8,1920.3c-78.6-34.5-159-132.2-172.5-208.9c-7.7-34.5-9.6-226.1-5.7-429.3c5.7-402.4,9.6-417.8,138-511.7l51.7-40.2h3792.4H9716l51.7,40.2C9898.1,868.2,9900,872,9900,1333.9s-1.9,465.7-132.2,563.4l-51.7,40.2l-3769.4,3.8C2842.2,1945.2,2167.7,1941.3,2119.8,1920.3z"/><path d="M280.1-532.6c-78.6-34.5-159-132.2-172.5-208.9c-7.7-34.5-9.6-226.1-5.7-429.3c5.7-402.4,9.6-417.7,138-511.7c49.8-38.3,78.6-40.2,471.4-40.2c392.8,0,421.6,1.9,471.4,40.2c130.3,97.7,132.2,101.6,132.2,563.4c0,392.8-1.9,421.6-40.2,471.4c-95.8,128.4-105.4,132.2-540.4,136.1C433.4-507.7,324.2-511.5,280.1-532.6z"/><path d="M2119.8-532.6c-78.6-34.5-159-132.2-172.5-208.9c-7.7-34.5-9.6-226.1-5.7-429.3c5.7-402.4,9.6-417.7,138-511.7l51.7-40.2h3792.4H9716l51.7,40.2c130.3,97.7,132.2,101.6,132.2,563.4c0,461.8-1.9,465.7-132.2,563.4l-51.7,40.3l-3769.4,3.8C2842.2-507.7,2167.7-511.5,2119.8-532.6z"/><path d="M280.1-2985.5c-78.6-34.5-159-132.2-172.5-208.9c-7.7-34.5-9.6-226.1-5.7-429.3c5.7-402.4,9.6-417.8,138-511.7c49.8-38.3,78.6-40.2,471.4-40.2c392.8,0,421.6,1.9,471.4,40.2c130.3,97.7,132.2,101.6,132.2,563.4c0,392.8-1.9,421.6-40.2,471.4c-95.8,128.4-105.4,132.2-540.4,136.1C433.4-2960.6,324.2-2964.4,280.1-2985.5z"/><path d="M2119.8-2985.5c-78.6-34.5-159-132.2-172.5-208.9c-7.7-34.5-9.6-226.1-5.7-429.3c5.7-402.4,9.6-417.8,138-511.7l51.7-40.2h3792.4H9716l51.7,40.2c130.3,97.7,132.2,101.6,132.2,563.4c0,461.8-1.9,465.7-132.2,563.4l-51.7,40.2l-3769.4,3.8C2842.2-2960.6,2167.7-2964.4,2119.8-2985.5z"/></g></g>
</svg>