<?xml version="1.0" encoding="utf-8"?>
<!-- Svg Vector Icons : http://www.onlinewebfonts.com/icon -->
<!DOCTYPE svg PUBLIC "-//W3C//DTD SVG 1.1//EN" "http://www.w3.org/Graphics/SVG/1.1/DTD/svg11.dtd">
<svg version="1.1" xmlns="http://www.w3.org/2000/svg" xmlns:xlink="http://www.w3.org/1999/xlink" x="0px" y="0px" viewBox="0 0 1000 1000" enable-background="new 0 0 1000 1000" xml:space="preserve">
<metadata> Svg Vector Icons : http://www.onlinewebfonts.com/icon </metadata>
<g><g transform="translate(0.000000,512.000000) scale(0.100000,-0.100000)"><path d="M1803.6,3316.4V1612.9H5000h3196.4v1703.5v1703.5H5000H1803.6V3316.4z M7555.2,3316.4V2043.6l-740.7-5.7l-742.6-3.8v1282.4v1282.4l742.6-3.8l740.7-5.7V3316.4z"/><path d="M532.7,4566.3c-124.4-36.4-241.2-118.7-315.8-220.1C92.4,4175.8,100.1,4487.8,100.1-102v-4178.3l42.1-111c55.5-147.4,199.1-290.9,346.4-346.4l111-42.1H5000h4400.4l111,42.1c147.4,55.5,290.9,199.1,346.4,346.4l42.1,111V-102c0,4584.1,7.7,4279.8-112.9,4446.3c-72.7,101.4-195.2,185.7-327.3,223.9c-82.3,24.9-197.1,30.6-578,30.6H8407V3000.6V1402.4H5000H1593v1598.2v1598.2l-482.3-1.9C735.6,4596.9,605.4,4589.2,532.7,4566.3z M8828-1688.7v-2670.1H5000H1171.9v2670.1V981.3H5000h3828V-1688.7z"/><path d="M1803.6-406.4v-105.3H5000h3196.4v105.3v105.3H5000H1803.6V-406.4z"/><path d="M1803.6-1267.7v-105.3H5000h3196.4v105.3v105.3H5000H1803.6V-1267.7z"/><path d="M1803.6-2109.8v-105.3h111c59.3-1.9,1496.8-1.9,3190.7-1.9l3081.6-1.9l5.7,107.2l5.7,107.2H5000H1803.6V-2109.8z"/><path d="M1803.6-2971.2v-105.3H5000h3196.4v105.3v105.3H5000H1803.6V-2971.2z"/></g></g>
</svg>