<?xml version="1.0" encoding="utf-8"?>
<!-- Svg Vector Icons : http://www.onlinewebfonts.com/icon -->
<!DOCTYPE svg PUBLIC "-//W3C//DTD SVG 1.1//EN" "http://www.w3.org/Graphics/SVG/1.1/DTD/svg11.dtd">
<svg version="1.1" xmlns="http://www.w3.org/2000/svg" xmlns:xlink="http://www.w3.org/1999/xlink" x="0px" y="0px" viewBox="0 0 1000 1000" enable-background="new 0 0 1000 1000" xml:space="preserve">
<metadata> Svg Vector Icons : http://www.onlinewebfonts.com/icon </metadata>
<g><g transform="translate(0.000000,512.000000) scale(0.100000,-0.100000)"><path d="M1803.6,3316.4V1612.9H5000h3196.4v1703.5v1703.5H5000H1803.6V3316.4z M7555.3,3316.4V2043.6l-740.7-5.7l-742.6-3.8v1282.4v1282.4l742.6-3.8l740.7-5.7V3316.4z"/><path d="M532.7,4566.3c-124.4-36.4-241.2-118.7-315.8-220.1C92.4,4175.8,100.1,4487.8,100.1-102v-4178.4l42.1-111c55.5-147.4,199.1-290.9,346.4-346.4c109.1-42.1,128.2-42.1,1353.2-42.1H3086v210.5v210.5h-957h-957v2670.1V981.3H5000h3828.1V550.7V120h535.9H9900v1977.2c0,2166.7,3.8,2086.3-112.9,2247.1c-72.7,101.4-195.2,185.7-327.3,223.9c-82.3,24.9-197.1,30.6-578,30.6H8407V3000.6V1402.4H5000H1593v1598.2v1598.2l-482.3-1.9C735.6,4596.9,605.4,4589.3,532.7,4566.3z"/><path d="M3296.5-2444.8v-2335.1h3301.7H9900v2335.1v2335.1H6598.3H3296.5V-2444.8z M9475.1-2439.1l3.8-1919.8H6598.3H3717.6v1910.2c0,1050.8,5.7,1917.9,13.4,1923.6c5.7,7.7,1301.5,11.5,2874.9,9.6l2863.4-5.7L9475.1-2439.1z"/><path d="M4783.8-2019.9l-855.6-855.6l3.8-631.6l5.7-631.6h2660.5h2660.5l5.7,526.4l3.8,526.4l-535.9,535.9l-535.9,535.9L7769.7-2441l-424.9-424.9h-105.3h-105.3l-744.6,851.8c-409.6,468.9-746.5,851.7-746.5,851.7C5641.2-1162.4,5254.6-1547.1,4783.8-2019.9z"/><path d="M1803.6-406.4v-105.3h641.2H3086v105.3v105.3h-641.2h-641.2V-406.4z"/><path d="M1803.6-1267.7V-1373h641.2H3086v105.3v105.3h-641.2h-641.2V-1267.7z"/><path d="M1803.6-2109.9v-105.3l105.3-1.9c57.4,0,290.9,0,516.8,0c225.8,0,467,0,535.9,0l124.4,1.9v105.3v105.3h-641.2h-641.2V-2109.9z"/><path d="M1803.6-2971.2v-105.3h641.2H3086v105.3v105.3h-641.2h-641.2V-2971.2z"/></g></g>
</svg>