<?xml version="1.0" encoding="utf-8"?>
<!-- Svg Vector Icons : http://www.onlinewebfonts.com/icon -->
<!DOCTYPE svg PUBLIC "-//W3C//DTD SVG 1.1//EN" "http://www.w3.org/Graphics/SVG/1.1/DTD/svg11.dtd">
<svg version="1.1" xmlns="http://www.w3.org/2000/svg" xmlns:xlink="http://www.w3.org/1999/xlink" x="0px" y="0px" viewBox="0 0 1000 1000" enable-background="new 0 0 1000 1000" xml:space="preserve">
<metadata> Svg Vector Icons : http://www.onlinewebfonts.com/icon </metadata>
<g><g transform="translate(0.000000,512.000000) scale(0.100000,-0.100000)"><path d="M3575.4,4998.6c-1179.1-74.6-2210.9-336.9-2785.1-710.2c-260.3-168.4-482.4-440.3-526.4-647c-7.7-36.4-15.3-1630.9-13.4-3541.2c0-3430.2,0-3476.1,38.3-3583.3c241.2-681.4,1498.8-1163.8,3334.5-1278.7c1056.6-65.1,2316.2,47.9,3110.6,277.6l105.3,30.6v296.7c0,162.7-5.8,294.8-13.4,294.8c-9.6,0-105.3-26.8-216.3-59.3c-1146.6-331.2-2880.8-377.1-4192.1-112.9c-746.5,149.3-1351.4,400.1-1525.6,627.8l-63.2,84.2v740.8v742.7l214.4-111c769.5-392.4,2113.3-618.3,3470.4-585.7c503.4,13.4,721.7,30.6,1194.4,91.9c279.5,38.3,313.9,46,323.5,80.4c5.7,21.1,111,176.1,237.4,342.6c124.4,166.5,222,302.4,216.3,302.4c-3.8,0-82.3-17.2-174.2-38.3c-91.9-23-271.8-55.5-398.2-76.6c-1847.2-298.6-4040.8-51.7-4886.9,547.4c-206.7,147.4-197.2,97.6-197.2,949.5v737l216.3-109.1c245-122.5,641.3-260.3,991.6-342.7c1780.2-426.9,4236.1-271.8,5463.1,342.7l220.1,111V167.3V-70.1l86.1,49.8c76.6,42.1,105.3,47.9,229.7,40.2c109.1-3.8,155-15.3,201-49.8l57.4-44l-3.8,1872.1l-5.7,1872.1l-65.1,134c-74.6,153.1-268,358-449.8,476.6C6957.7,4813,5252.2,5103.9,3575.4,4998.6z M5145,4407.2c1158.1-99.5,2142-388.6,2473.1-727.4c137.8-141.7,132.1-260.3-21.1-409.6c-302.4-294.8-1152.3-560.9-2174.5-683.4c-430.7-51.7-1393.5-70.8-1866.3-38.3c-939.9,67-1730.4,243.1-2277.9,509.2c-612.5,296.7-603,566.6,32.5,871c547.4,260.3,1395.4,440.3,2356.3,497.7C3988.8,4445.4,4819.6,4434,5145,4407.2z M941.4,2588.7c415.4-256.5,1292.1-484.3,2241.5-585.7c394.3-40.2,1372.5-57.4,1789.8-28.7c1052.8,70.8,1931.4,264.2,2501.8,547.5c97.6,49.8,185.7,97.6,197.2,107.2c9.6,9.6,24.9,17.2,32.5,17.2c7.6,0,15.3-327.3,15.3-727.4c0-603-5.7-738.9-28.7-782.9c-74.7-147.4-396.2-338.8-804-480.5c-1540.9-534.1-4054.2-492-5463.1,88.1c-214.4,90-356,170.4-457.5,264.2c-143.6,132.1-137.8,97.6-137.8,911.1c0,400.1,3.8,727.4,9.6,727.4C843.8,2646.1,889.8,2619.3,941.4,2588.7z"/><path d="M7926.3-315.1c-17.2-19.1-392.4-518.7-834.6-1110.2c-832.7-1110.2-859.5-1154.3-811.6-1259.5c32.5-68.9,130.2-86.1,516.8-86.1h348.4v-909.2v-911.2l49.8-45.9l51.7-47.9h761.8h761.9l53.6,45.9l53.6,45.9l5.7,909.2l5.7,911.2l377.1,5.7c323.5,5.7,386.7,11.5,430.7,40.2c61.3,40.2,70.8,134,21.1,229.7C9677.8-2422.6,8129.2-340,8087.1-305.6C8043.1-273,7960.7-276.8,7926.3-315.1z"/></g></g>
</svg>