<?xml version="1.0" encoding="utf-8"?>
<!-- Svg Vector Icons : http://www.onlinewebfonts.com/icon -->
<!DOCTYPE svg PUBLIC "-//W3C//DTD SVG 1.1//EN" "http://www.w3.org/Graphics/SVG/1.1/DTD/svg11.dtd">
<svg version="1.1" xmlns="http://www.w3.org/2000/svg" xmlns:xlink="http://www.w3.org/1999/xlink" x="0px" y="0px" viewBox="0 0 1000 1000" enable-background="new 0 0 1000 1000" xml:space="preserve">
<metadata> Svg Vector Icons : http://www.onlinewebfonts.com/icon </metadata>
<g><g transform="translate(0.000000,511.000000) scale(0.100000,-0.100000)"><path d="M8460.6,4864.4c-129.2-46.3-198.6-104.1-570.6-478.1l-372-372l757.6-757.6l755.7-755.7l399,399c217.8,221.7,412.5,431.8,431.8,468.4c57.8,109.9,48.2,310.4-19.3,443.4c-80.9,160-886.7,961.9-1033.2,1029.4C8691.9,4897.2,8570.5,4904.9,8460.6,4864.4z"/><path d="M3974.8,471.2L867.4-2636.2l757.6-757.6l755.7-755.7L5490-1040.1l3107.5,3107.5l-757.6,757.6l-755.7,755.7L3974.8,471.2z"/><path d="M262.1-3854.6c-84.8-422.1-156.1-778.8-161.9-790.4c-5.8-19.3,150.4-25.1,740.2-25.1c618.8,0,778.8,5.8,913.7,32.8c90.6,17.3,167.7,34.7,173.5,38.6c7.7,7.7-1486.3,1509.4-1503.6,1509.4C418.2-3089.2,345-3434.3,262.1-3854.6z"/></g></g>
</svg>