<?xml version="1.0" encoding="utf-8"?>
<!-- Svg Vector Icons : http://www.onlinewebfonts.com/icon -->
<!DOCTYPE svg PUBLIC "-//W3C//DTD SVG 1.1//EN" "http://www.w3.org/Graphics/SVG/1.1/DTD/svg11.dtd">
<svg version="1.1" xmlns="http://www.w3.org/2000/svg" xmlns:xlink="http://www.w3.org/1999/xlink" x="0px" y="0px" viewBox="0 0 1000 1000" enable-background="new 0 0 1000 1000" xml:space="preserve">
<metadata> Svg Vector Icons : http://www.onlinewebfonts.com/icon </metadata>
<g><g transform="translate(0.000000,511.000000) scale(0.100000,-0.100000)"><path d="M1746.1,4672.7c-174.2-59.3-315.8-195.2-379-359.8c-11.5-30.6-302.4-1179.1-645-2549.5L100-730.7v-1471.9c0-1003,7.7-1506.4,21.1-1575.3c51.7-248.8,216.3-480.4,415.3-585.7c239.3-128.2-63.2-120.6,4515.3-114.8l4149.7,5.7l112.9,44c227.8,86.1,386.6,220.1,480.4,403.9C9900-3816.1,9900-3810.4,9900-2208.3v1477.7l-622.1,2494c-342.6,1370.5-633.5,2520.8-645,2553.4c-42.1,116.8-153.1,239.3-283.3,310.1l-124.4,68.9l-3196.5,3.8C2159.5,4703.4,1822.7,4701.4,1746.1,4672.7z M7673.9,3179.8c42.1-166.5,281.4-1115.9,530.2-2111.2C8453,73.2,8661.6-755.5,8667.3-772.8c9.6-32.5-40.2-34.5-842.2-34.5c-557,0-869-7.6-905.3-21c-28.7-11.5-74.6-38.3-99.5-61.3c-24.9-23-168.4-289-319.6-593.4L6225-2032.2H5000H3775L3499.4-1481c-151.2,302.4-294.8,568.5-319.6,591.5c-24.9,23-70.8,49.8-99.5,61.3c-36.4,13.4-348.4,21-905.4,21c-802,0-851.8,1.9-842.2,34.5c5.7,17.2,243.1,962.8,526.4,2099.7c285.2,1137,524.4,2086.3,530.2,2111.2l11.5,42.1H5000h2599.3L7673.9,3179.8z"/><path d="M2846.7,2825.7c-24.9-109.1-105.3-520.6-105.3-543.6c0-23,365.6-26.8,2258.6-26.8c1427.9,0,2258.6,7.7,2258.6,19.1c0,9.6-24.9,145.5-57.4,300.5c-32.5,155-57.4,283.3-57.4,287.1s-964.7,5.7-2143.8,5.7H2856.2L2846.7,2825.7z"/><path d="M2607.4,1637c0-3.8-24.9-135.9-57.4-290.9c-30.6-155-57.4-290.9-57.4-300.5c0-7.7,1129.3-15.3,2507.4-15.3c1380,0,2507.4,1.9,2507.4,5.7s-24.9,137.8-57.4,296.7c-30.6,160.8-57.4,294.8-57.4,300.5c0,5.7-1075.7,9.6-2392.6,9.6C3685,1642.8,2607.4,1638.9,2607.4,1637z"/><path d="M2312.7,155.5c-28.7-145.5-57.4-283.3-63.2-306.3l-9.6-44H5000c2201.2,0,2758.2,5.7,2750.5,24.9c-3.8,11.5-32.5,149.3-61.3,306.3l-53.6,281.4H5000H2364.3L2312.7,155.5z"/></g></g>
</svg>