<?xml version="1.0" encoding="utf-8"?>
<!-- Svg Vector Icons : http://www.onlinewebfonts.com/icon -->
<!DOCTYPE svg PUBLIC "-//W3C//DTD SVG 1.1//EN" "http://www.w3.org/Graphics/SVG/1.1/DTD/svg11.dtd">
<svg version="1.1" xmlns="http://www.w3.org/2000/svg" xmlns:xlink="http://www.w3.org/1999/xlink" x="0px" y="0px" viewBox="0 0 1000 1000" enable-background="new 0 0 1000 1000" xml:space="preserve">
<metadata> Svg Vector Icons : http://www.onlinewebfonts.com/icon </metadata>
<g><g transform="translate(0.000000,511.000000) scale(0.100000,-0.100000)"><path d="M3656.6,3761.2c-30.6-15.3-838.8-810.1-1794.5-1767.7C-26.2,103.2,79.1,220.1,113.6,40c11.5-65.1,206.8-268.1,1758.1-1821.3C3239.1-3148.7,3633.6-3533.6,3685.3-3549c44-11.5,1062.9-17.2,3048.9-13.4c2976.1,5.7,2981.9,5.7,3033.6,46c28.7,21.1,70.9,63.2,92,91.9l40.2,51.7V110.9v3483.7l-40.2,51.7c-21.1,28.7-63.2,70.8-92,91.9c-51.7,40.2-55.5,40.2-3052.7,44.1C4212,3786.1,3704.5,3782.2,3656.6,3761.2z M4715.7,2533.6c47.9-21.1,304.5-264.3,794.8-752.7l722-722l723.9,722c731.6,731.6,789,781.4,923.1,781.4c114.9,0,199.2-57.5,463.5-321.7c337.1-333.2,386.9-430.9,310.3-612.9c-19.1-47.9-266.2-308.3-750.7-794.8l-722-722l722-723.9c488.4-488.4,731.6-745,752.7-792.9c72.8-176.2,30.6-264.3-270-570.7c-275.8-281.5-356.2-344.7-463.5-358.1c-162.8-21.1-174.3-11.5-957.6,766.1l-731.6,731.6l-723.9-722c-731.6-731.6-791-781.4-923.1-781.4c-114.9,0-199.2,57.5-463.5,321.7c-337.1,333.3-386.9,430.9-312.2,612.9c21.1,47.9,264.3,304.5,752.7,794.8l722,722l-722,723.9c-488.4,488.4-731.6,745-752.7,792.9c-74.7,181.9-30.6,270,293,597.5C4434.2,2560.4,4531.8,2608.2,4715.7,2533.6z"/></g></g>
</svg>