<?xml version="1.0" encoding="utf-8"?>
<!-- Svg Vector Icons : http://www.onlinewebfonts.com/icon -->
<!DOCTYPE svg PUBLIC "-//W3C//DTD SVG 1.1//EN" "http://www.w3.org/Graphics/SVG/1.1/DTD/svg11.dtd">
<svg version="1.1" xmlns="http://www.w3.org/2000/svg" xmlns:xlink="http://www.w3.org/1999/xlink" x="0px" y="0px" viewBox="0 0 1000 1000" enable-background="new 0 0 1000 1000" xml:space="preserve">
<metadata> Svg Vector Icons : http://www.onlinewebfonts.com/icon </metadata>
<g><g transform="translate(0.000000,511.000000) scale(0.100000,-0.100000)"><path d="M8675.7,4814.2c-76.6-36.4-180.1-124.5-396.6-339.1c-162.9-159-295.1-298.9-295.1-310.4c0-11.5,272.1-293.1,603.5-624.6l603.5-603.5l318,316.1c331.5,329.5,389,410,390.9,546c0,151.3-69,245.2-461.7,636.1c-235.7,233.7-398.5,379.4-442.6,398.5C8894.1,4875.5,8794.5,4869.7,8675.7,4814.2z"/><path d="M4886,1064.7L2236.3-1585.1l-151.4-756.8c-84.3-415.8-149.4-758.7-147.5-760.6c1.9-3.8,344.9,63.2,762.5,145.6l756.8,153.3L6098.8-157.7C7551.1,1298.4,8744.7,2494,8750.4,2497.8c7.7,9.6-1189.8,1214.7-1207,1214.7C7537.7,3712.5,6342.1,2520.8,4886,1064.7z"/><path d="M559.8,3618.6c-172.4-42.2-329.5-172.4-411.9-337.2l-47.9-95.8V-655.8c0-3628.8,1.9-3845.3,34.5-3912.3l32.6-72.8h4215.1h4215.1l32.6,70.9c32.6,69,34.5,218.4,40.2,2299.1l3.8,2228.2h-613.1h-613.1V-1882v-1839.3H4382.1H1316.6v3065.5v3065.5h1839.3h1839.3v613.1v613.1l-2188-1.9C1602.1,3632,592.4,3626.3,559.8,3618.6z"/></g></g>
</svg>