<?xml version="1.0" encoding="utf-8"?>
<!-- Svg Vector Icons : http://www.onlinewebfonts.com/icon -->
<!DOCTYPE svg PUBLIC "-//W3C//DTD SVG 1.1//EN" "http://www.w3.org/Graphics/SVG/1.1/DTD/svg11.dtd">
<svg version="1.1" xmlns="http://www.w3.org/2000/svg" xmlns:xlink="http://www.w3.org/1999/xlink" x="0px" y="0px" viewBox="0 0 1000 1000" enable-background="new 0 0 1000 1000" xml:space="preserve">
<metadata> Svg Vector Icons : http://www.onlinewebfonts.com/icon </metadata>
<g><g transform="translate(0.000000,511.000000) scale(0.100000,-0.100000)"><path d="M6790.1,3451.2c-545.8-95.8-1022.8-392.6-1363.7-842.7L5323,2470.6l-153.2,93.8c-840.8,503.7-1913.3,367.7-2599-331.3c-300.7-304.5-511.4-701-584.2-1099.4l-24.9-130.2l-130.2-24.9c-398.4-72.8-812.1-293-1110.9-591.8C-43.6-379.3-110.6-1605.1,567.4-2451.6c262.4-329.4,612.9-570.8,1017-704.8c306.4-99.6,385-103.4,2083.8-103.4h1570.5l-76.6,38.3c-109.2,53.6-1932.5,1882.7-1972.7,1976.6c-40.2,99.6-36.4,187.7,15.3,283.5c78.5,147.5,101.5,153.2,678,153.2h503.7V-7.7c0,737.4,3.8,804.4,36.4,877.2c26.8,59.4,57.5,90,120.7,120.7c82.4,38.3,109.2,40.2,735.4,40.2h651.2l105.3-51.7c59.4-30.6,120.7-80.4,145.6-118.7c44-65.1,44-67,44-865.7v-802.5h498c459.7,0,505.6-3.8,572.7-38.3c132.1-67,187.7-247.1,126.4-398.4c-40.2-93.8-1863.6-1922.9-1972.7-1976.6l-76.6-38.3h1273.7c1026.6,0,1308.1,5.7,1446,28.7c1080.2,174.3,1865.5,1143.4,1804.2,2221.7C9866-473.1,9668.7-26.9,9283.8,371.5l-151.3,159l49.8,149.4c294.9,894.4-47.9,1894.2-833.1,2432.4C7916.2,3409.1,7305.3,3543.2,6790.1,3451.2z"/></g></g>
</svg>