<?xml version="1.0" encoding="utf-8"?>
<!-- Svg Vector Icons : http://www.onlinewebfonts.com/icon -->
<!DOCTYPE svg PUBLIC "-//W3C//DTD SVG 1.1//EN" "http://www.w3.org/Graphics/SVG/1.1/DTD/svg11.dtd">
<svg version="1.1" xmlns="http://www.w3.org/2000/svg" xmlns:xlink="http://www.w3.org/1999/xlink" x="0px" y="0px" viewBox="0 0 1000 1000" enable-background="new 0 0 1000 1000" xml:space="preserve">
<metadata> Svg Vector Icons : http://www.onlinewebfonts.com/icon </metadata>
<g><g transform="translate(0.000000,512.000000) scale(0.100000,-0.100000)"><path d="M4872.2,4994.8c-44-19.2-714.3-810.1-2407.3-2842C601.6-82.1,117.1-675.7,105.6-729.4c-17.2-97.7,5.8-193.4,63.2-262.4c90-107.2,128.3-113,666.4-113h488.3v-1735.1c0-1920.8-5.7-1827,122.6-1905.5c55.5-34.5,114.9-36.4,1106.9-36.4h1045.6l63.2,51.7c114.9,97.7,113,65.1,113,1350.1c0,1321.4,1.9,1329.1,136,1604.8c199.2,400.2,635.8,670.3,1089.7,670.3c455.8,0,888.6-268.1,1087.8-672.2c136-275.8,137.9-281.5,137.9-1597.2c0-1110.8,1.9-1172,38.3-1248.6c21.1-47.9,63.2-97.7,99.6-120.6c61.3-36.4,93.8-38.3,1101.2-38.3h1036l63.2,51.7c118.7,99.6,113,15.3,113,1901.7v1723.6h488.3c538.1,0,576.4,5.7,666.4,113c61.3,72.8,82.3,176.2,57.5,271.9c-13.4,49.8-191.5,279.6-610.9,781.4l-591.8,710.5l-9.6,1415.2c-9.6,1392.3-9.6,1417.2-49.8,1468.9c-97.7,130.2-101.5,132.1-563,132.1c-461.5,0-465.4-1.9-563-132.1c-38.3-49.8-40.2-84.3-49.8-722l-9.6-668.4L6316.2,3617.9c-858,1028.4-1143.3,1357.8-1191.2,1378.9C5042.7,5031.2,4952.7,5029.3,4872.2,4994.8z"/></g></g>
</svg>