<?xml version="1.0" encoding="utf-8"?>
<!-- Svg Vector Icons : http://www.onlinewebfonts.com/icon -->
<!DOCTYPE svg PUBLIC "-//W3C//DTD SVG 1.1//EN" "http://www.w3.org/Graphics/SVG/1.1/DTD/svg11.dtd">
<svg version="1.1" xmlns="http://www.w3.org/2000/svg" xmlns:xlink="http://www.w3.org/1999/xlink" x="0px" y="0px" viewBox="0 0 1000 1000" enable-background="new 0 0 1000 1000" xml:space="preserve">
<metadata> Svg Vector Icons : http://www.onlinewebfonts.com/icon </metadata>
<g><g transform="translate(0.000000,511.000000) scale(0.100000,-0.100000)"><path d="M6790.1,3451.2c-545.8-95.8-1022.8-392.6-1363.7-842.7L5323,2470.6l-153.2,93.8c-840.8,503.7-1913.3,367.7-2599-331.3c-300.7-304.5-511.4-701-584.2-1099.4l-24.9-130.2l-130.2-24.9c-398.4-72.8-812.1-293-1110.9-591.8C-43.6-379.3-110.6-1605.1,567.4-2451.6c262.4-329.4,612.9-570.8,1017-704.8c293-95.8,419.4-103.4,1658.6-103.4h1143.4v919.3v919.3h-498c-459.7,0-505.6,3.8-572.7,38.3c-132.1,67-187.7,247.1-126.4,398.4C3229.6-886.8,5052.9,938.4,5164,992c93.9,46,176.2,47.9,272,9.6C5533.6,961.4,7358.9-861.9,7412.5-973c49.8-99.6,47.9-185.8-1.9-289.2c-26.8-57.5-63.2-95.8-114.9-120.7c-67-34.5-113-38.3-572.7-38.3h-498v-919.3v-919.3h848.5c651.2,0,886.8,5.7,1018.9,28.7c1080.2,174.3,1865.5,1143.4,1804.2,2221.7C9866-473.1,9668.7-26.9,9283.8,371.5l-151.3,159l49.8,149.4c294.9,894.4-47.9,1894.2-833.1,2432.4C7916.2,3409.1,7305.3,3543.2,6790.1,3451.2z"/></g></g>
</svg>