<?xml version="1.0" encoding="utf-8"?>
<!-- Svg Vector Icons : http://www.onlinewebfonts.com/icon -->
<!DOCTYPE svg PUBLIC "-//W3C//DTD SVG 1.1//EN" "http://www.w3.org/Graphics/SVG/1.1/DTD/svg11.dtd">
<svg version="1.1" xmlns="http://www.w3.org/2000/svg" xmlns:xlink="http://www.w3.org/1999/xlink" x="0px" y="0px" viewBox="0 0 1000 1000" enable-background="new 0 0 1000 1000" xml:space="preserve">
<metadata> Svg Vector Icons : http://www.onlinewebfonts.com/icon </metadata>
<g><g transform="translate(0.000000,512.000000) scale(0.100000,-0.100000)"><path d="M6718.5,4997.9c-431.4-70.9-818.6-228.1-1182.9-483.1C5363,4394,3248.4,2283.2,3091.2,2076.2c-230.1-302.9-412.2-715.1-502.3-1133c-47.9-226.2-47.9-799.5,0-1041c74.8-366.2,214.7-707.5,423.7-1019.9c120.8-180.2,554.1-644.2,648-692.1c70.9-36.4,226.2-34.5,283.7,3.8c93.9,61.4,521.5,498.5,557.9,567.5c84.4,163,42.2,258.8-235.8,548.3c-184,191.7-232,253.1-308.7,406.4c-126.5,255-170.6,435.2-170.6,709.4c0,339.3,99.7,653.8,287.6,904.9c130.4,172.5,2128.1,2151.1,2250.8,2227.7c157.2,99.7,366.2,178.3,561.7,212.8c210.9,36.4,306.7,36.4,517.6,0c333.6-59.4,575.1-187.9,824.4-439c140-140,191.7-209,264.6-350.8c132.3-256.9,172.5-421.8,172.5-715.1c0-182.1-9.6-274.2-40.3-389.2c-61.3-224.3-195.5-469.7-350.8-634.6c-72.9-78.6-132.3-151.5-132.3-163s21.1-84.4,46-163c120.8-368.1,201.3-916.4,176.4-1200.2l-13.4-143.8l442.9,441c243.5,243.5,498.5,513.8,565.6,603.9c232,306.7,412.2,715.1,502.3,1131.1c49.8,230.1,49.8,805.2,0,1035.3c-59.4,270.3-145.7,515.7-264.6,747.7C9216.5,4269.4,8528.3,4796.6,7711.6,4973C7479.6,5022.9,6954.3,5036.3,6718.5,4997.9z"/><path d="M6059,2043.6c-32.6-17.2-172.5-143.8-308.7-283.7c-377.7-383.4-381.5-435.2-70.9-761.1C6083.9,575,6214.3,285.5,6214.3-188c0-339.3-74.8-592.4-256.9-866.6C5846.2-1219.4,3883-3182.6,3716.2-3293.8c-151.5-101.6-318.3-176.4-490.8-222.4c-182.1-47.9-580.9-47.9-755.4,0c-373.8,101.6-694,335.5-903,657.6c-170.6,260.7-239.6,496.5-237.7,830.1c0,429.4,109.3,711.3,414.1,1058.3l113.1,130.4l-55.6,176.4c-122.7,379.6-189.8,835.9-170.6,1152.2l9.6,174.5l-473.5-477.4C790.6-195.7,666-333.7,564.4-487.1c-210.9-318.2-354.7-665.2-429.5-1037.2c-49.8-253.1-46-795.6,9.6-1044.9c124.6-569.4,362.3-1008.4,761.1-1405.3c396.9-398.8,845.5-642.2,1395.7-761.1c281.8-59.4,818.6-59.4,1100.5,0c371.9,80.5,672.9,209,1004.6,427.5c155.3,101.6,335.5,274.2,1313.3,1251.9c1200.1,1198.2,1255.7,1263.4,1434,1620c278,556,364.3,1200.2,243.5,1798.3c-111.2,542.6-352.8,985.4-778.4,1420.6c-126.5,130.4-253.1,249.2-281.8,264.6C6267.9,2081.9,6135.6,2080,6059,2043.6z"/></g></g>
</svg>