<?xml version="1.0" encoding="utf-8"?>
<!-- Svg Vector Icons : http://www.onlinewebfonts.com/icon -->
<!DOCTYPE svg PUBLIC "-//W3C//DTD SVG 1.1//EN" "http://www.w3.org/Graphics/SVG/1.1/DTD/svg11.dtd">
<svg version="1.1" xmlns="http://www.w3.org/2000/svg" xmlns:xlink="http://www.w3.org/1999/xlink" x="0px" y="0px" viewBox="0 0 1000 1000" enable-background="new 0 0 1000 1000" xml:space="preserve">
<metadata> Svg Vector Icons : http://www.onlinewebfonts.com/icon </metadata>
<g><g transform="translate(0.000000,512.000000) scale(0.100000,-0.100000)"><path d="M4253.5,5005c-1506.4-97.6-2763.9-423-3498.9-905.3c-340.7-222-537.9-446-616.3-700.5c-34.4-111-38.3-178-38.3-825c0-650.8,3.8-713.9,38.3-828.8C310.5,1186.4,1158.5,692.6,2450.5,394c1106.3-254.6,2511.3-335,3765-212.5c1986.8,195.2,3430,821.1,3654,1586.8c24.9,88,30.6,220.1,30.6,807.7c0,643.1-3.8,712-38.3,823.1C9624.4,4170.5,8141,4792.5,6110.2,4976.3C5715.9,5012.7,4628.7,5028,4253.5,5005z"/><path d="M113.4,840c-7.7-7.7-13.4-331.1-13.4-717.8c0-648.9,3.8-712,38.3-826.9c76.6-250.7,275.6-472.8,616.3-696.7c1249.9-819.2,3958.3-1148.4,6245.6-761.8c1607.8,273.7,2675.9,825,2869.2,1481.5c24.9,88,30.6,220.1,30.6,807.7c0,386.6-7.7,708.2-15.3,713.9c-9.6,5.8-26.8-23-42.1-61.2C9593.7,83.9,8208-515.2,6387.7-716.1C3530-1033.9,586.2-325.7,155.5,780.7C140.2,820.9,121.1,845.7,113.4,840z"/><path d="M113.4-1610c-7.7-7.7-13.4-331.1-13.4-717.8c0-648.9,3.8-712,38.3-826.9C423.5-4073.4,2525.1-4775.9,5000-4775.9c2497.9,0,4595.7,708.2,4869.4,1644.2c24.9,88,30.6,220.1,30.6,807.7c0,386.6-7.7,708.2-15.3,713.9c-9.6,5.7-26.8-23-42.1-61.3c-68.9-193.3-277.5-428.8-537.8-610.6c-974.3-671.8-3018.5-1058.5-5005.3-943.6c-2161,126.3-3831.9,752.2-4143.9,1556.1C140.2-1629.1,121.1-1604.3,113.4-1610z"/></g></g>
</svg>