<?xml version="1.0" encoding="utf-8"?>
<!-- Svg Vector Icons : http://www.onlinewebfonts.com/icon -->
<!DOCTYPE svg PUBLIC "-//W3C//DTD SVG 1.1//EN" "http://www.w3.org/Graphics/SVG/1.1/DTD/svg11.dtd">
<svg version="1.1" xmlns="http://www.w3.org/2000/svg" xmlns:xlink="http://www.w3.org/1999/xlink" x="0px" y="0px" viewBox="0 0 1000 1000" enable-background="new 0 0 1000 1000" xml:space="preserve">
<metadata> Svg Vector Icons : http://www.onlinewebfonts.com/icon </metadata>
<g><g transform="translate(0.000000,512.000000) scale(0.100000,-0.100000)"><path d="M4622.3,5007.2c-1008.1-84.3-1977.9-477.2-2736.9-1103.9C923.3,3104,329.1,2048,135.6,785C93.4,510.9,87.7-228.9,124.1-489.6c161-1113.5,607.6-2037.3,1362.7-2811.6c404.4-417.8,818.4-718.7,1333.9-973.6c492.6-243.4,923.8-381.4,1456.6-463.8c356.5-55.6,1036.9-59.4,1370.4-9.6c1090.5,166.7,1985.6,603.7,2754.1,1343.5C9248.9-2592.1,9816.2-1398,9877.5-305.5c9.6,185.9,7.7,210.8-28.8,270.2c-23,36.4-74.7,84.3-115,107.3c-70.9,40.3-99.7,42.2-456.1,42.2c-358.4,0-385.2-3.8-456.2-44.1C8712.3,10.7,8677.8-64.1,8654.8-273c-109.2-1002.4-640.1-1933.8-1450.8-2543.3C5339.1-4223,2669.3-3561.8,1668.8-1447.8c-626.7,1326.3-402.5,2882.5,575,4001.8c678.5,774.3,1711.5,1240,2752.2,1240c806.9,0,1632.9-285.6,2267.3-782l111.2-88.2l-565.4-565.4c-607.5-611.4-609.5-613.3-578.8-778.1c17.2-90.1,113.1-195.5,199.3-220.4c47.9-15.3,584.6-19.2,1675.1-15.3c1585,5.7,1604.2,5.7,1655.9,46c28.8,21.1,70.9,63.2,92,92c40.2,51.7,40.2,70.9,46,1655.9c3.8,1090.5,0,1627.2-15.3,1675.1c-24.9,86.2-130.3,182.1-220.4,199.3c-166.7,30.7-164.8,32.6-814.5-617.1L8244.6,3794l-153.3,126.5c-864.4,709.1-2004.7,1109.7-3122.1,1096.3C4819.7,5014.9,4664.4,5011,4622.3,5007.2z"/></g></g>
</svg>