<?xml version="1.0" encoding="utf-8"?>
<!-- Svg Vector Icons : http://www.onlinewebfonts.com/icon -->
<!DOCTYPE svg PUBLIC "-//W3C//DTD SVG 1.1//EN" "http://www.w3.org/Graphics/SVG/1.1/DTD/svg11.dtd">
<svg version="1.1" xmlns="http://www.w3.org/2000/svg" xmlns:xlink="http://www.w3.org/1999/xlink" x="0px" y="0px" viewBox="0 0 1000 1000" enable-background="new 0 0 1000 1000" xml:space="preserve">
<metadata> Svg Vector Icons : http://www.onlinewebfonts.com/icon </metadata>
<g><g transform="translate(0.000000,511.000000) scale(0.100000,-0.100000)"><path d="M1979.5,4353.3c-46-44.1-47.9-55.6-47.9-306.9v-258.9h-416.2c-481.4,0-602.2-19.2-813.1-126.6c-262.7-130.4-456.4-374-558.1-698.1L100,2819V-211.1v-3030.1l53.7-157.3c99.7-295.3,280-500.5,560-638.6c322.2-157.3-78.6-143.8,4286.3-143.8c4364.9,0,3964.1-13.4,4286.3,143.8c280,138.1,460.3,343.3,560,638.6l53.7,157.3v3039.7v3039.7l-53.7,157.3c-99.7,295.3-281.9,504.4-560,638.6c-257,124.7-333.7,138.1-799.7,147.7l-418.1,9.6v257c0,249.3-1.9,260.8-47.9,304.9c-44.1,46-59.4,47.9-258.9,47.9c-199.5,0-214.8-1.9-258.9-47.9c-46-44.1-47.9-55.6-47.9-306.9v-258.9h-306.8h-306.9v258.9c0,251.2-1.9,262.7-47.9,306.9c-44.1,46-59.4,47.9-258.9,47.9s-214.8-1.9-258.9-47.9c-46-44.1-47.9-55.6-47.9-306.9v-258.9H5000H3772.6v258.9c0,251.2-1.9,262.7-47.9,306.9c-44.1,46-59.5,47.9-258.9,47.9c-199.4,0-214.8-1.9-258.9-47.9c-46-44.1-47.9-55.6-47.9-306.9v-258.9h-306.9h-306.9v258.9c0,251.2-1.9,262.7-47.9,306.9c-44.1,46-59.5,47.9-258.9,47.9C2038.9,4401.2,2023.6,4399.3,1979.5,4353.3z M8020.5,1284.8c46-44.1,47.9-59.5,47.9-258.9c0-199.4-1.9-214.8-47.9-258.9l-46-47.9H5000H2025.5l-46,47.9c-46,44.1-47.9,59.5-47.9,258.9c0,199.5,1.9,214.8,47.9,258.9l46,47.9H5000h2974.5L8020.5,1284.8z M8020.5,57.4c46-44.1,47.9-59.4,47.9-258.9c0-199.5-1.9-214.8-47.9-258.9l-46-47.9H5000H2025.5l-46,47.9c-46,44.1-47.9,59.4-47.9,258.9c0,199.5,1.9,214.8,47.9,258.9l46,47.9H5000h2974.5L8020.5,57.4z M5258.9-1170c46-44.1,47.9-59.4,47.9-258.9c0-199.5-1.9-214.8-47.9-258.9l-46-47.9H3619.2H2025.5l-46,47.9c-46,44.1-47.9,59.5-47.9,258.9c0,199.5,1.9,214.8,47.9,258.9l46,47.9h1593.7h1593.7L5258.9-1170z"/></g></g>
</svg>