<?xml version="1.0" encoding="utf-8"?>
<!-- Svg Vector Icons : http://www.onlinewebfonts.com/icon -->
<!DOCTYPE svg PUBLIC "-//W3C//DTD SVG 1.1//EN" "http://www.w3.org/Graphics/SVG/1.1/DTD/svg11.dtd">
<svg version="1.1" xmlns="http://www.w3.org/2000/svg" xmlns:xlink="http://www.w3.org/1999/xlink" x="0px" y="0px" viewBox="0 0 1000 1000" enable-background="new 0 0 1000 1000" xml:space="preserve">
<metadata> Svg Vector Icons : http://www.onlinewebfonts.com/icon </metadata>
<g><g transform="translate(0.000000,512.000000) scale(0.100000,-0.100000)"><path d="M4519.6,4966.4c-178-91.9-201-147.4-302.4-752.2l-88-518.7l-268-91.9c-292.8-97.6-465.1-172.3-643.1-277.5c-63.2-36.4-126.3-61.3-137.8-53.6c-13.4,7.7-201,141.6-419.2,296.7c-216.3,155-419.2,292.8-449.8,304.3c-90,34.5-243.1,26.8-335-19.1c-109.1-51.7-578-522.5-618.2-622.1c-36.4-84.2-40.2-245-11.5-323.5c11.5-30.6,151.2-237.4,312-459.4c158.9-224,289-413.4,290.9-424.9c0-9.6-61.2-143.6-135.9-296.7c-74.6-153.1-168.4-379-208.6-503.4c-57.4-181.8-78.5-225.9-111-233.5c-23-5.7-250.7-44-507.2-86.1c-254.6-42.1-495.7-90-534-107.2c-97.6-40.2-155-97.6-206.7-208.6C103.8,499,100,472.2,100,120c0-352.2,3.8-379,45.9-468.9C197.6-460,255-517.4,352.7-557.6c38.3-17.2,279.4-65.1,534-107.2c256.5-42.1,484.3-80.4,507.2-86.1c32.5-7.7,53.6-51.7,112.9-233.5c38.3-124.4,111-317.7,162.7-430.7l90-202.9l-315.8-390.5c-174.2-212.5-331.1-423-350.3-465.1c-47.9-103.4-45.9-258.4,3.8-356c57.4-114.8,484.3-585.7,568.5-627.8c206.7-105.3,275.6-84.2,817.3,256.5l449.8,281.4l179.9-107.2c250.7-149.3,474.7-250.7,767.5-346.4l248.8-80.4l88-514.9c49.8-283.3,95.7-532.1,103.4-553.2c34.4-82.3,112.9-162.7,206.7-210.5c93.8-45.9,109.1-47.9,461.3-47.9c201,0,396.2,9.6,434.5,19.1c88.1,24.9,214.4,134,256.5,220.1c17.2,38.3,70.8,298.6,116.7,580c47.9,279.5,88.1,511.1,90,511.1c1.9,1.9,116.8,38.3,256.5,82.3c143.6,45.9,359.8,135.9,507.2,210.5l254.6,128.2l432.6-308.2c239.3-170.4,463.2-317.7,495.8-331.2c95.7-32.5,227.8-24.9,315.8,17.2c101.4,49.8,591.5,543.6,631.6,637.4c36.4,88.1,36.4,223.9,0,313.9c-15.3,38.3-162.7,256.5-325.4,484.3c-162.7,229.7-296.7,423-296.7,430.7c0,9.6,49.8,114.8,112.9,237.4c116.7,229.7,227.8,511,271.8,687.1c19.1,74.6,34.5,103.4,63.2,109.1c22.9,5.7,248.8,44,503.4,86.1c254.6,42.1,486.2,86.1,516.8,97.6c97.6,36.4,181.8,116.8,227.8,216.3c44,91.9,45.9,118.7,45.9,470.8c0,352.2-3.8,379-45.9,468.9c-47.9,103.4-124.4,179.9-214.4,216.3c-30.6,11.5-266.1,57.4-524.5,99.5s-486.2,80.4-507.2,86.1c-30.6,5.7-49.8,47.9-91.9,195.2c-28.7,103.4-97.6,289-151.2,413.4l-95.7,224l308.2,382.8c386.6,476.6,394.3,491.9,394.3,650.8c0,160.8-30.6,212.5-323.5,535.9c-156.9,174.2-250.7,264.1-306.3,289c-93.8,42.1-237.3,45.9-325.4,9.6c-34.4-15.3-250.7-143.6-478.5-287.1c-227.8-143.6-419.2-260.3-424.9-260.3c-7.7,0-82.3,42.1-168.5,93.8c-254.6,153.1-539.7,285.2-805.8,369.4c-135.9,44-250.7,80.4-252.7,82.3c-1.9,0-42.1,231.6-90,511.1c-45.9,281.4-99.5,541.7-116.7,580c-42.1,86.1-168.4,195.2-256.5,220.1c-38.3,9.6-233.5,19.1-434.5,19.1C4624.8,5020,4621,5020,4519.6,4966.4z M5468.9,1902C6353.2,1670.4,6948.5,809.1,6839.4-86.7c-93.8-763.7-631.6-1380-1380-1577.2c-210.5-55.5-645-61.3-846-9.6c-568.5,141.6-1031.7,518.7-1269,1035.5c-118.7,254.6-153.1,423-153.1,758c0,248.8,7.7,321.6,44,457.5c166.5,612.5,625.9,1096.8,1225,1293.9C4753.1,1967.1,5172.3,1978.6,5468.9,1902z"/></g></g>
</svg>